<svg xmlns="http://www.w3.org/2000/svg" xmlns:xlink="http://www.w3.org/1999/xlink" width="100%" zoomAndPan="magnify" viewBox="0 0 350 350" height="100%" preserveAspectRatio="xMidYMid meet" version="1.0"><defs><g/><clipPath id="091fee1b57"><path d="M 99.378906 96.671875 L 275.683594 96.671875 L 275.683594 272.289062 L 99.378906 272.289062 Z M 99.378906 96.671875 " clip-rule="nonzero"/></clipPath><clipPath id="e4d59bd829"><path d="M 187.5 96.671875 C 138.832031 96.671875 99.378906 135.984375 99.378906 184.480469 C 99.378906 232.976562 138.832031 272.289062 187.5 272.289062 C 236.167969 272.289062 275.621094 232.976562 275.621094 184.480469 C 275.621094 135.984375 236.167969 96.671875 187.5 96.671875 Z M 187.5 96.671875 " clip-rule="nonzero"/></clipPath><clipPath id="57fe47514c"><path d="M 99.382812 96.671875 L 275.628906 96.671875 L 275.628906 272.171875 L 99.382812 272.171875 Z M 99.382812 96.671875 " clip-rule="nonzero"/></clipPath><clipPath id="bb440bf297"><path d="M 187.5 96.671875 C 138.832031 96.671875 99.382812 135.980469 99.382812 184.472656 C 99.382812 232.964844 138.832031 272.277344 187.5 272.277344 C 236.164062 272.277344 275.613281 232.964844 275.613281 184.472656 C 275.613281 135.980469 236.164062 96.671875 187.5 96.671875 Z M 187.5 96.671875 " clip-rule="nonzero"/></clipPath><clipPath id="e25b301992"><path d="M 237 234 L 276 234 L 276 279 L 237 279 Z M 237 234 " clip-rule="nonzero"/></clipPath><clipPath id="80b90382ed"><path d="M 240.808594 278.320312 L 215.664062 235.683594 L 250.550781 215.109375 L 275.695312 257.75 Z M 240.808594 278.320312 " clip-rule="nonzero"/></clipPath><clipPath id="be96f2c849"><path d="M 240.808594 278.320312 L 215.664062 235.683594 L 250.550781 215.109375 L 275.695312 257.75 Z M 240.808594 278.320312 " clip-rule="nonzero"/></clipPath><clipPath id="f1a7fbc165"><path d="M 232 225 L 271 225 L 271 270 L 232 270 Z M 232 225 " clip-rule="nonzero"/></clipPath><clipPath id="06df66f3ba"><path d="M 240.808594 278.320312 L 215.664062 235.683594 L 250.550781 215.109375 L 275.695312 257.75 Z M 240.808594 278.320312 " clip-rule="nonzero"/></clipPath><clipPath id="3cdb168dfb"><path d="M 240.808594 278.320312 L 215.664062 235.683594 L 250.550781 215.109375 L 275.695312 257.75 Z M 240.808594 278.320312 " clip-rule="nonzero"/></clipPath></defs><g clip-path="url(#091fee1b57)"><g clip-path="url(#e4d59bd829)"><path fill="#fcfcfb" d="M 99.378906 96.671875 L 275.683594 96.671875 L 275.683594 272.289062 L 99.378906 272.289062 Z M 99.378906 96.671875 " fill-opacity="1" fill-rule="nonzero"/></g></g><g clip-path="url(#57fe47514c)"><g clip-path="url(#bb440bf297)"><path stroke-linecap="butt" transform="matrix(0.75, 0, 0, 0.75, 99.383259, 96.67161)" fill="none" stroke-linejoin="miter" d="M 117.488996 0.000353797 C 52.598367 0.000353797 -0.000595032 52.411816 -0.000595032 117.06807 C -0.000595032 181.724324 52.598367 234.140994 117.488996 234.140994 C 182.374417 234.140994 234.973379 181.724324 234.973379 117.06807 C 234.973379 52.411816 182.374417 0.000353797 117.488996 0.000353797 Z M 117.488996 0.000353797 " stroke="#767c85" stroke-width="8" stroke-opacity="1" stroke-miterlimit="4"/></g></g><g fill="#344d70" fill-opacity="1"><g transform="translate(141.080284, 227.229806)"><g><path d="M 64.125 -81.640625 L 64.125 -33.484375 C 64.125 -29.460938 64.003906 -25.71875 63.765625 -22.25 C 63.296875 -14.832031 60.65625 -8.992188 55.84375 -4.734375 C 51.03125 -0.472656 43.972656 1.65625 34.671875 1.65625 C 25.441406 1.65625 18.4375 -0.726562 13.65625 -5.5 C 8.882812 -10.269531 6.382812 -16.957031 6.15625 -25.5625 L 6.03125 -29.703125 L 22.359375 -29.703125 L 22.59375 -25.5625 C 23.144531 -15.539062 27.484375 -10.53125 35.609375 -10.53125 C 42.867188 -10.53125 46.894531 -14.75 47.6875 -23.1875 C 47.757812 -24.925781 47.796875 -27.804688 47.796875 -31.828125 L 47.796875 -81.640625 Z M 64.125 -81.640625 "/></g></g></g><g clip-path="url(#e25b301992)"><g clip-path="url(#80b90382ed)"><g clip-path="url(#be96f2c849)"><path fill="#887469" d="M 237.289062 234.113281 L 240.695312 278.078125 L 252.277344 258.15625 L 275.574219 257.726562 Z M 237.289062 234.113281 " fill-opacity="1" fill-rule="nonzero"/></g></g></g><g clip-path="url(#f1a7fbc165)"><g clip-path="url(#06df66f3ba)"><g clip-path="url(#3cdb168dfb)"><path fill="#887469" d="M 270.3125 248.863281 C 270.367188 248.953125 270.386719 249.066406 270.359375 249.175781 C 270.304688 249.347656 270.15625 249.46875 269.976562 249.480469 L 247.398438 249.910156 L 236.167969 269.183594 C 236.078125 269.347656 235.902344 269.417969 235.722656 269.382812 C 235.546875 269.347656 235.429688 269.199219 235.417969 269.019531 L 232.085938 225.972656 C 232.074219 225.824219 232.144531 225.675781 232.269531 225.601562 C 232.398438 225.527344 232.566406 225.519531 232.691406 225.601562 L 270.183594 248.71875 C 270.234375 248.753906 270.277344 248.804688 270.3125 248.863281 Z M 236.117188 267.671875 L 246.808594 249.304688 C 246.878906 249.1875 247.007812 249.113281 247.144531 249.109375 L 268.59375 248.691406 L 232.945312 226.695312 Z M 236.117188 267.671875 " fill-opacity="1" fill-rule="nonzero"/></g></g></g><g fill="#809a8a" fill-opacity="1"><g transform="translate(220.179263, 176.238869)"><g><path d="M 1.125 3.84375 L 1.125 -0.03125 L 2.5625 -0.03125 C 3.332031 -0.03125 3.894531 -0.210938 4.25 -0.578125 C 4.613281 -0.941406 4.796875 -1.550781 4.796875 -2.40625 L 4.796875 -7.34375 C 4.796875 -8.726562 5.046875 -9.773438 5.546875 -10.484375 C 6.046875 -11.203125 6.816406 -11.734375 7.859375 -12.078125 L 7.859375 -12.46875 C 6.816406 -12.8125 6.046875 -13.335938 5.546875 -14.046875 C 5.046875 -14.765625 4.796875 -15.816406 4.796875 -17.203125 L 4.796875 -22.140625 C 4.796875 -22.992188 4.613281 -23.597656 4.25 -23.953125 C 3.894531 -24.316406 3.332031 -24.5 2.5625 -24.5 L 1.125 -24.5 L 1.125 -28.375 L 3.5 -28.375 C 5.582031 -28.375 7.132812 -27.882812 8.15625 -26.90625 C 9.175781 -25.925781 9.6875 -24.421875 9.6875 -22.390625 L 9.6875 -16.53125 C 9.6875 -15.707031 9.859375 -15.117188 10.203125 -14.765625 C 10.554688 -14.421875 11.148438 -14.25 11.984375 -14.25 L 13.1875 -14.25 L 13.1875 -10.296875 L 11.984375 -10.296875 C 11.148438 -10.296875 10.554688 -10.117188 10.203125 -9.765625 C 9.859375 -9.421875 9.6875 -8.832031 9.6875 -8 L 9.6875 -2.140625 C 9.6875 -0.109375 9.175781 1.394531 8.15625 2.375 C 7.132812 3.351562 5.582031 3.84375 3.5 3.84375 Z M 1.125 3.84375 "/></g></g></g></svg>